<svg width="31" height="31" viewBox="0 0 31 31" fill="none" xmlns="http://www.w3.org/2000/svg">
<g clip-path="url(#clip0_79_361)">
<path d="M18.7957 11.0182V8.39976L16.8772 8.08866C16.6893 7.27202 16.3652 6.50723 15.931 5.81373L17.0652 4.23878L15.1986 2.37217L13.6236 3.50639C12.9366 3.07215 12.1718 2.74808 11.3487 2.56012L11.0376 0.641663H8.3997L8.0886 2.56012C7.27196 2.74808 6.50717 3.07215 5.81367 3.50639L4.23872 2.37217L2.37211 4.23878L3.50633 5.81373C3.07208 6.50075 2.74802 7.26554 2.56006 8.08866L0.641602 8.39976V11.0376L2.56006 11.3487C2.74802 12.1654 3.07208 12.9302 3.50633 13.6237L2.37211 15.1986L4.23872 17.0652L5.81367 15.931C6.50069 16.3653 7.26548 16.6893 8.0886 16.8773L8.3997 18.7957H11.0376L11.3487 16.8773C12.1653 16.6893 12.9301 16.3653 13.6236 15.931L15.1986 17.0652L17.0652 15.1986L15.931 13.6237C16.3652 12.9367 16.6893 12.1719 16.8772 11.3487L18.7957 11.0117V11.0182Z" stroke="white" stroke-width="1.2" stroke-linejoin="round"/>
<path d="M22.6845 24.6289C23.7584 24.6289 24.6289 23.7584 24.6289 22.6845C24.6289 21.6106 23.7584 20.7401 22.6845 20.7401C21.6106 20.7401 20.7401 21.6106 20.7401 22.6845C20.7401 23.7584 21.6106 24.6289 22.6845 24.6289Z" stroke="white" stroke-width="0.5" stroke-miterlimit="10"/>
<path d="M30.3518 20.954L29.5417 18.8411L27.8371 19.23C27.4417 18.6402 26.9556 18.1347 26.4047 17.7199L26.8843 16.0347L24.8168 15.1144L23.8835 16.5921C23.2094 16.456 22.5095 16.4366 21.803 16.5338L20.954 15.0107L18.841 15.8208L19.2299 17.5254C18.6401 17.9208 18.1346 18.4069 17.7198 18.9578L16.0411 18.4782L15.1208 20.5457L16.5985 21.479C16.4624 22.1531 16.443 22.853 16.5402 23.5595L15.0171 24.4085L15.8273 26.5214L17.5318 26.1326C17.9272 26.7224 18.4133 27.2279 18.9642 27.6362L18.4911 29.3214L20.5586 30.2417L21.4854 28.764C22.1595 28.9001 22.8594 28.9195 23.5659 28.8223L24.415 30.3454L26.5279 29.5352L26.139 27.8307C26.7288 27.4353 27.2343 26.9492 27.6491 26.3983L29.3343 26.8779L30.2546 24.8104L28.7704 23.8771C28.9065 23.203 28.9259 22.5031 28.8287 21.7966L30.3518 20.9475V20.954Z" stroke="white" stroke-width="1.2" stroke-linejoin="round"/>
<path d="M12.9626 13.6107V12.3144C12.9626 11.0182 11.1803 10.3701 9.72197 10.3701C8.26368 10.3701 6.48132 11.0182 6.48132 12.3144V13.6107" stroke="white" stroke-width="0.5" stroke-miterlimit="10"/>
<path d="M9.72197 10.37C10.8886 10.37 11.6664 9.50154 11.6664 8.42565V7.77752C11.6664 6.70162 10.8886 5.83313 9.72197 5.83313C8.55534 5.83313 7.77759 6.70162 7.77759 7.77752V8.42565C7.77759 9.50154 8.55534 10.37 9.72197 10.37Z" stroke="white" stroke-width="0.5" stroke-miterlimit="10"/>
</g>
<defs>
<clipPath id="clip0_79_361">
<rect width="31" height="31" fill="white"/>
</clipPath>
</defs>
</svg>
