<svg width="36" height="31" viewBox="0 0 36 31" fill="none" xmlns="http://www.w3.org/2000/svg">
<g clip-path="url(#clip0_79_284)">
<path d="M17.8866 7.13946C16.0331 7.13946 14.7878 5.70488 14.7878 3.56973C14.7878 1.43459 16.0336 0 17.8866 0C19.7397 0 20.9854 1.43459 20.9854 3.56973C20.9854 5.70488 19.7402 7.13946 17.8866 7.13946ZM17.8866 0.892433C16.2531 0.892433 15.6732 2.3346 15.6732 3.56973C15.6732 4.80486 16.2531 6.24703 17.8866 6.24703C19.5202 6.24703 20.1001 4.80486 20.1001 3.56973C20.1001 2.3346 19.5202 0.892433 17.8866 0.892433Z" fill="white"/>
<path d="M21.8709 30.7707C21.6261 30.7707 21.4282 30.5712 21.4282 30.3244V17.8304C21.4282 17.5836 21.6261 17.3842 21.8709 17.3842C22.1157 17.3842 22.3136 17.5836 22.3136 17.8304V30.3244C22.3136 30.5712 22.1157 30.7707 21.8709 30.7707Z" fill="white"/>
<path d="M13.9024 30.7707C13.6576 30.7707 13.4597 30.5712 13.4597 30.3244V17.8304C13.4597 17.5836 13.6576 17.3842 13.9024 17.3842C14.1472 17.3842 14.3451 17.5836 14.3451 17.8304V30.3244C14.3451 30.5712 14.1472 30.7707 13.9024 30.7707Z" fill="white"/>
<path d="M18.3293 8.92435H17.4439C17.1991 8.92435 17.0012 8.72445 17.0012 8.47814C17.0012 8.23183 17.1991 8.03192 17.4439 8.03192H18.3293C18.5741 8.03192 18.772 8.23183 18.772 8.47814C18.772 8.72445 18.5741 8.92435 18.3293 8.92435Z" fill="white"/>
<path d="M17.8865 13.8327C17.6417 13.8327 17.4438 13.6328 17.4438 13.3865V8.47814C17.4438 8.23183 17.6417 8.03192 17.8865 8.03192C18.1313 8.03192 18.3292 8.23183 18.3292 8.47814V13.3865C18.3292 13.6328 18.1313 13.8327 17.8865 13.8327Z" fill="white"/>
<path d="M23.1382 17.8848H19.8482C19.5294 17.8848 19.0567 17.7866 18.6574 17.6648C18.6383 17.6688 18.6193 17.672 18.5998 17.6737L16.0539 17.8839L11.7453 17.8853C11.1671 17.8853 10.5974 17.6394 10.2583 17.2436C9.99046 16.9312 9.87536 16.5368 9.93424 16.133L10.8541 10.9586C11.1755 9.36787 12.9299 8.03235 14.6882 8.03235H15.2314C15.4058 8.03235 15.5634 8.13498 15.6351 8.29517L17.9012 13.3664L20.1399 8.29517C20.2116 8.13498 20.3697 8.03235 20.5436 8.03235H20.8597C22.4861 8.03235 23.9147 9.25855 24.2564 10.9479L24.9506 16.1379C25.0205 16.4904 24.9196 16.8737 24.6615 17.1909C24.318 17.6122 23.7204 17.8848 23.1391 17.8848H23.1382ZM18.5312 16.6715C18.8539 16.8219 19.5467 16.9924 19.8486 16.9924H23.1387C23.4561 16.9924 23.8005 16.8411 23.9771 16.6247C24.1121 16.4591 24.086 16.3275 24.078 16.2842L23.3844 11.0965C23.1316 9.85068 22.0674 8.92478 20.8602 8.92478H20.8305L18.6817 13.7328C18.5135 14.05 18.2147 14.2303 17.8889 14.2303C17.5626 14.2303 17.2642 14.0505 17.1093 13.7613L14.9463 8.92478H14.6896C13.3473 8.92478 11.9617 9.95331 11.7249 11.1264L10.8094 16.2762C10.7899 16.4118 10.8285 16.5421 10.9294 16.6599C11.1003 16.859 11.4287 16.9928 11.747 16.9928H16.0194L17.2726 16.8889C16.2854 16.2588 14.5258 15.3008 13.1503 15.4378C13.006 15.4538 12.8697 15.3967 12.7758 15.2901C12.6815 15.1834 12.6439 15.0375 12.6745 14.8978L13.1632 12.6516C13.2154 12.4106 13.4514 12.258 13.69 12.3111C13.929 12.3642 14.08 12.6021 14.0278 12.8426L13.6586 14.54C15.7888 14.6689 18.1921 16.4163 18.5334 16.672L18.5312 16.6715Z" fill="white"/>
<path d="M13.1879 15.3106C13.098 15.3106 13.0077 15.2829 12.9293 15.2262C12.731 15.0821 12.6863 14.8032 12.8293 14.6033L13.3654 13.8546C13.6031 13.5217 14.0582 13.2125 14.5655 13.4021L16.3061 13.7305C16.7803 13.6765 19.3952 13.4146 21.2222 13.9934L21.092 12.669C21.0677 12.4236 21.2456 12.2049 21.4887 12.1808C21.7361 12.1567 21.9491 12.3361 21.973 12.5806L22.1753 14.6422C22.1912 14.8064 22.1164 14.9661 21.9805 15.0576C21.8428 15.1495 21.6688 15.1571 21.5254 15.079C19.887 14.1901 16.3805 14.6198 16.346 14.6239C16.2999 14.6297 16.2548 14.6279 16.2092 14.6198L14.3601 14.2705C14.3278 14.2642 14.2955 14.2544 14.2654 14.241C14.2326 14.2272 14.1419 14.295 14.0834 14.3758L13.5469 15.125C13.4606 15.2459 13.3251 15.3101 13.1874 15.3101L13.1879 15.3106Z" fill="white"/>
<path d="M17.8636 30.7707C17.6188 30.7707 17.4209 30.5712 17.4209 30.3245V23.185C17.4209 22.9382 17.6188 22.7388 17.8636 22.7388C18.1084 22.7388 18.3063 22.9382 18.3063 23.185V30.3245C18.3063 30.5712 18.1084 30.7707 17.8636 30.7707Z" fill="white"/>
<path d="M28.4141 8.31037C26.681 8.31037 25.4707 6.91728 25.4707 4.92314C25.4707 2.929 26.681 1.53546 28.4141 1.53546C30.1472 1.53546 31.358 2.92855 31.358 4.92314C31.358 6.91773 30.1477 8.31037 28.4141 8.31037ZM28.4141 2.42789C26.8948 2.42789 26.3561 3.7719 26.3561 4.92314C26.3561 6.07438 26.8953 7.41793 28.4141 7.41793C29.933 7.41793 30.4726 6.07393 30.4726 4.92314C30.4726 3.77234 29.9334 2.42789 28.4141 2.42789Z" fill="white"/>
<path d="M25.0452 31C24.8004 31 24.6025 30.8006 24.6025 30.5538V17.7898C24.6025 17.543 24.8004 17.3436 25.0452 17.3436C25.29 17.3436 25.4879 17.543 25.4879 17.7898V30.5538C25.4879 30.8006 25.29 31 25.0452 31Z" fill="white"/>
<path d="M32.5489 31C32.3041 31 32.1062 30.8006 32.1062 30.5538V18.3685C32.1062 18.1218 32.3041 17.9223 32.5489 17.9223C32.7937 17.9223 32.9916 18.1218 32.9916 18.3685V30.5538C32.9916 30.8006 32.7937 31 32.5489 31Z" fill="white"/>
<path d="M28.8307 9.99125H27.9971C27.7523 9.99125 27.5544 9.79134 27.5544 9.54503C27.5544 9.29872 27.7523 9.09882 27.9971 9.09882H28.8307C29.0755 9.09882 29.2734 9.29872 29.2734 9.54503C29.2734 9.79134 29.0755 9.99125 28.8307 9.99125Z" fill="white"/>
<path d="M29.1795 14.6132C28.967 14.6132 28.7797 14.4588 28.7434 14.2406L27.9776 9.61866C27.9373 9.37592 28.0997 9.14567 28.341 9.10507C28.5832 9.06535 28.8107 9.22867 28.8505 9.47186L29.6164 14.0938C29.6567 14.3365 29.4942 14.5668 29.2529 14.6074C29.2282 14.6114 29.2038 14.6136 29.1795 14.6136V14.6132Z" fill="white"/>
<path d="M33.4315 18.4288H26.5668C26.322 18.4288 26.1241 18.2293 26.1241 17.9825C26.1241 17.7358 26.322 17.5363 26.5668 17.5363H33.4315C33.8499 17.5363 34.1509 17.4301 34.3258 17.22C34.6117 16.8777 34.5307 16.3204 34.5298 16.3146L33.7923 12.0769C33.6799 11.4267 33.3678 10.8614 32.9149 10.4839C32.4859 10.1269 32.0078 9.96404 31.4465 9.99036H31.2486L29.9728 14.4436C29.964 14.4739 29.952 14.5034 29.9374 14.5311C29.7873 14.8122 29.4974 14.9871 29.1804 14.9871C28.8635 14.9871 28.5735 14.8122 28.4234 14.5311L25.6655 9.99081H25.6159C24.9098 9.99081 24.1821 10.0216 23.7208 10.3902C23.5291 10.5428 23.2506 10.5102 23.0992 10.3179C22.947 10.1247 22.9793 9.84401 23.171 9.69095C23.8549 9.14434 24.7916 9.09838 25.6159 9.09838H25.9138C26.0679 9.09838 26.2109 9.17914 26.2914 9.31167L29.1658 14.0447L30.4908 9.42055C30.5457 9.22956 30.7192 9.09793 30.9162 9.09793H31.427C32.1836 9.06447 32.8817 9.29828 33.4793 9.79537C34.0956 10.3081 34.5165 11.0635 34.6657 11.9225L35.4032 16.1606C35.4201 16.2593 35.5524 17.1374 35.0044 17.7942C34.6533 18.2146 34.1243 18.4283 33.4324 18.4283L33.4315 18.4288Z" fill="white"/>
<path d="M26.4427 18.4341C26.0191 18.4341 24.919 18.3146 23.9845 17.1852C23.8278 16.996 23.8535 16.7144 24.0412 16.5569C24.2302 16.399 24.5086 16.4248 24.6649 16.614C25.5197 17.6475 26.5065 17.5426 26.5136 17.5395C26.5313 17.5373 26.549 17.5364 26.5667 17.5364C26.8226 17.4913 28.0559 16.7176 28.5619 16.3276C28.6469 16.2718 29.8293 15.5431 31.8302 15.4048L31.4929 13.5231C31.4495 13.2808 31.6093 13.0488 31.8501 13.0046C32.0945 12.9595 32.3207 13.1219 32.3645 13.3642L32.7922 15.7497C32.8152 15.8787 32.7811 16.0112 32.6979 16.1125C32.6151 16.2138 32.4929 16.2731 32.3628 16.2749C30.31 16.3044 29.0758 17.0536 29.0634 17.0607C29.0661 17.0607 27.2732 18.3851 26.5986 18.427C26.5702 18.4292 26.5167 18.4333 26.4423 18.4333L26.4427 18.4341Z" fill="white"/>
<path d="M26.6245 15.3352C26.4403 15.3352 26.2699 15.2183 26.207 15.0362L25.6767 13.5039C25.5961 13.2714 25.7183 13.0166 25.9489 12.9354C26.1782 12.8551 26.4319 12.9774 26.5125 13.2098L26.914 14.37C28.4674 14.0603 29.768 14.125 29.8268 14.1291L31.7915 14.1728C32.0358 14.1786 32.2293 14.3825 32.2244 14.6288C32.2187 14.8716 32.0217 15.0652 31.7817 15.0652C31.7786 15.0652 31.7751 15.0652 31.772 15.0652L29.7936 15.0206C29.7653 15.0197 28.3191 14.9479 26.7258 15.3236C26.6922 15.3316 26.6585 15.3352 26.6245 15.3352Z" fill="white"/>
<path d="M28.7708 31C28.526 31 28.3281 30.8005 28.3281 30.5538V23.3849C28.3281 23.1381 28.526 22.9387 28.7708 22.9387C29.0156 22.9387 29.2135 23.1381 29.2135 23.3849V30.5538C29.2135 30.8005 29.0156 31 28.7708 31Z" fill="white"/>
<path d="M7.01373 8.31037C5.28061 8.31037 4.07031 6.91728 4.07031 4.92314C4.07031 2.929 5.28061 1.53546 7.01373 1.53546C8.74684 1.53546 9.95759 2.92855 9.95759 4.92314C9.95759 6.91773 8.74729 8.31037 7.01373 8.31037ZM7.01373 2.42789C5.49443 2.42789 4.95568 3.7719 4.95568 4.92314C4.95568 6.07438 5.49487 7.41793 7.01373 7.41793C8.53258 7.41793 9.07222 6.07393 9.07222 4.92314C9.07222 3.77234 8.53303 2.42789 7.01373 2.42789Z" fill="white"/>
<path d="M10.3826 31C10.1378 31 9.93994 30.8006 9.93994 30.5538V17.7898C9.93994 17.543 10.1378 17.3436 10.3826 17.3436C10.6274 17.3436 10.8253 17.543 10.8253 17.7898V30.5538C10.8253 30.8006 10.6274 31 10.3826 31Z" fill="white"/>
<path d="M2.87921 31C2.6344 31 2.43652 30.8006 2.43652 30.5538V18.3685C2.43652 18.1218 2.6344 17.9223 2.87921 17.9223C3.12401 17.9223 3.32189 18.1218 3.32189 18.3685V30.5538C3.32189 30.8006 3.12401 31 2.87921 31Z" fill="white"/>
<path d="M7.43076 9.99125H6.59674C6.35193 9.99125 6.15405 9.79134 6.15405 9.54503C6.15405 9.29872 6.35193 9.09882 6.59674 9.09882H7.43076C7.67556 9.09882 7.87344 9.29872 7.87344 9.54503C7.87344 9.79134 7.67556 9.99125 7.43076 9.99125Z" fill="white"/>
<path d="M6.24799 14.6132C6.22364 14.6132 6.1993 14.6114 6.17451 14.6069C5.93324 14.5663 5.77078 14.3365 5.81106 14.0933L6.57691 9.47143C6.61719 9.22824 6.84429 9.06493 7.08644 9.10464C7.3277 9.14525 7.49017 9.37505 7.44988 9.61824L6.68404 14.2401C6.64774 14.4583 6.46048 14.6127 6.24799 14.6127V14.6132Z" fill="white"/>
<path d="M8.86114 18.4288H1.99641C1.30494 18.4288 0.775484 18.2151 0.424434 17.7947C-0.123168 17.1383 0.00919536 16.2602 0.0260174 16.162L0.763089 11.923C0.912717 11.0644 1.33371 10.309 1.94904 9.79629C2.54667 9.29876 3.23947 9.06538 4.02214 9.0993H4.51308C4.71007 9.0993 4.88361 9.23004 4.9385 9.42147L6.26301 14.0465L9.13781 9.31259C9.21838 9.18006 9.36137 9.0993 9.51542 9.0993H9.81335C10.5323 9.0993 11.3543 9.13187 12.0104 9.52097C12.2216 9.64591 12.2915 9.91944 12.1676 10.1318C12.0436 10.3438 11.7718 10.4152 11.5615 10.2898C11.0971 10.0145 10.4433 9.99173 9.81335 9.99173H9.76377L6.99256 14.5538C6.85488 14.8135 6.56537 14.988 6.24885 14.9885C5.93675 14.9894 5.64193 14.814 5.49141 14.5329C5.47636 14.5052 5.46397 14.4753 5.45556 14.445L4.18018 9.99218H4.00222C3.42496 9.9663 2.94243 10.1283 2.51347 10.4852C2.06104 10.8627 1.74851 11.4285 1.63606 12.0782L0.898993 16.3169C0.898993 16.3191 0.813112 16.8786 1.10573 17.2249C1.28103 17.4324 1.58073 17.5377 1.9973 17.5377H8.86202C9.10683 17.5377 9.30471 17.7372 9.30471 17.9839C9.30471 18.2307 9.10683 18.4301 8.86202 18.4301L8.86114 18.4288Z" fill="white"/>
<path d="M8.98336 18.4341C8.91032 18.4341 8.85764 18.4301 8.82931 18.4279C8.15377 18.3859 6.35691 17.0584 6.32813 17.0361C6.32282 17.0361 5.09393 16.3048 3.0651 16.2753C2.93495 16.2736 2.81277 16.2138 2.72954 16.1129C2.64676 16.0116 2.61267 15.8791 2.63569 15.7501L3.06377 13.3647C3.10759 13.1224 3.33868 12.9604 3.57817 13.005C3.81899 13.0487 3.97836 13.2808 3.93542 13.5235L3.59765 15.4052C5.59859 15.5435 6.7779 16.27 6.83102 16.3039C7.37198 16.7184 8.60531 17.4922 8.88331 17.5386C8.94219 17.5435 9.74832 17.6149 10.5243 16.8724C10.7019 16.7028 10.9812 16.7104 11.1503 16.8889C11.3185 17.0674 11.311 17.3498 11.1339 17.5198C10.2764 18.3404 9.36009 18.435 8.9838 18.435L8.98336 18.4341Z" fill="white"/>
<path d="M8.80354 15.3352C8.7699 15.3352 8.73625 15.3316 8.70216 15.3236C7.10451 14.9465 5.66313 15.0197 5.64896 15.0201L3.65688 15.0652C3.65334 15.0652 3.64979 15.0652 3.64714 15.0652C3.4072 15.0652 3.21021 14.872 3.20445 14.6288C3.19914 14.3825 3.39304 14.1781 3.6374 14.1728L5.61576 14.1286C5.66224 14.1255 6.96108 14.0599 8.51447 14.37L8.91598 13.2098C8.99699 12.9774 9.25065 12.8551 9.47952 12.9354C9.71016 13.0166 9.83234 13.271 9.75177 13.5039L9.22143 15.0362C9.15813 15.2187 8.98814 15.3352 8.80398 15.3352H8.80354Z" fill="white"/>
<path d="M6.65655 31C6.41175 31 6.21387 30.8005 6.21387 30.5538V23.3849C6.21387 23.1381 6.41175 22.9387 6.65655 22.9387C6.90136 22.9387 7.09924 23.1381 7.09924 23.3849V30.5538C7.09924 30.8005 6.90136 31 6.65655 31Z" fill="white"/>
</g>
<defs>
<clipPath id="clip0_79_284">
<rect width="35.4286" height="31" fill="white"/>
</clipPath>
</defs>
</svg>
