<svg width="28" height="31" viewBox="0 0 28 31" fill="none" xmlns="http://www.w3.org/2000/svg">
<g clip-path="url(#clip0_79_322)">
<path d="M8.25097 18.5723H2.70007C1.59404 18.5723 0.662518 17.7446 0.533128 16.6469L0.0238541 12.3228C-0.0935643 11.3277 0.221854 10.327 0.888146 9.57804C1.5549 8.82905 2.51266 8.39935 3.51602 8.39935H7.79327C9.26215 8.39935 10.6353 9.0531 11.5608 10.1927L13.9985 13.1955C14.1587 13.3929 14.1283 13.6827 13.9308 13.8428C13.7333 14.0025 13.4432 13.9721 13.2829 13.7752L10.8457 10.7724C10.0961 9.84901 8.98357 9.31948 7.79373 9.31948H3.51648C2.77605 9.31948 2.06924 9.63646 1.577 10.1895C1.08522 10.742 0.85269 11.4804 0.939257 12.2151L1.44807 16.5393C1.52267 17.1732 2.06141 17.6517 2.70053 17.6517H7.79097V15.8501H3.67027C3.42807 15.8501 3.22731 15.6624 3.21073 15.4208L3.07489 13.414C3.05739 13.1606 3.24941 12.9411 3.50312 12.9241C3.76006 12.9025 3.97648 13.0984 3.99352 13.3519L4.10035 14.93H8.25143C8.50561 14.93 8.7119 15.1361 8.7119 15.39V18.1118C8.7119 18.3662 8.50561 18.5718 8.25143 18.5718L8.25097 18.5723Z" fill="white"/>
<path d="M10.0513 30.9425C9.79711 30.9425 9.59082 30.7368 9.59082 30.4824V18.0607C9.59082 17.8063 9.79711 17.6006 10.0513 17.6006C10.3055 17.6006 10.5117 17.8063 10.5117 18.0607V30.4824C10.5117 30.7368 10.3055 30.9425 10.0513 30.9425Z" fill="white"/>
<path d="M9.88527 15.7378C9.63109 15.7378 9.4248 15.5317 9.4248 15.2778V14.302C9.4248 14.048 9.63109 13.8419 9.88527 13.8419C10.1394 13.8419 10.3457 14.048 10.3457 14.302V15.2778C10.3457 15.5317 10.1394 15.7378 9.88527 15.7378Z" fill="white"/>
<path d="M2.25905 31C2.00487 31 1.79858 30.7943 1.79858 30.5399V18.1122C1.79858 17.8578 2.00487 17.6522 2.25905 17.6522C2.51322 17.6522 2.71951 17.8578 2.71951 18.1122V30.5399C2.71951 30.7943 2.51322 31 2.25905 31Z" fill="white"/>
<path d="M25.0423 20.6656C24.405 20.6656 23.7963 20.4369 23.3132 20.0123L20.4082 17.4589L18.7648 17.2192C18.5198 17.1838 18.3471 16.9607 18.3734 16.715L18.6796 13.8575C18.7058 13.61 18.9264 13.4288 19.1727 13.4476L21.6662 13.6395C21.7679 13.6473 21.8642 13.6887 21.9397 13.7572L24.7259 16.2775C24.9147 16.4482 24.929 16.7389 24.7582 16.9271C24.5873 17.1157 24.2963 17.13 24.108 16.9593L21.4387 14.5449L19.548 14.3995L19.3367 16.3732L20.6766 16.5687C20.7646 16.5816 20.8475 16.6198 20.9142 16.6782L23.9215 19.3213C24.2613 19.6198 24.6937 19.7717 25.1491 19.7422C25.744 19.7063 26.2782 19.4036 26.6139 18.9113C26.9495 18.4195 27.0366 17.8122 26.8528 17.2459L25.249 12.3048C24.8807 11.1703 23.8308 10.4075 22.6373 10.4075H18.285C17.312 10.4075 16.3998 10.8841 15.845 11.6828L13.3106 15.3293C13.2309 15.4438 13.1034 15.5161 12.9643 15.5257L8.71192 15.8192V17.6434L13.7881 17.5528L16.1107 15.4162C16.2981 15.2442 16.5895 15.2561 16.7613 15.4434C16.9335 15.6302 16.9215 15.9214 16.7341 16.0934L14.2826 18.3482C14.1997 18.4246 14.0915 18.4678 13.9792 18.4701L8.25928 18.5723C8.12206 18.5644 8.01615 18.5267 7.92821 18.4407C7.84026 18.3542 7.79053 18.236 7.79053 18.1122V15.3905C7.79053 15.1489 7.97794 14.9483 8.21922 14.9313L12.6802 14.6235L15.0884 11.1583C15.8155 10.1122 17.0104 9.48785 18.285 9.48785H22.6373C24.2314 9.48785 25.6331 10.506 26.1253 12.021L27.7291 16.962C28.0017 17.8012 27.8728 18.7006 27.375 19.4298C26.8772 20.1586 26.0866 20.6076 25.2048 20.6605C25.1505 20.6637 25.0966 20.6656 25.0427 20.6656H25.0423Z" fill="white"/>
<path d="M16.4224 30.9158C16.1682 30.9158 15.9619 30.7101 15.9619 30.4557V15.3905C15.9619 15.1365 16.1682 14.9304 16.4224 14.9304C16.6766 14.9304 16.8828 15.1365 16.8828 15.3905V30.4557C16.8828 30.7101 16.6766 30.9158 16.4224 30.9158Z" fill="white"/>
<path d="M24.5933 30.9158C24.3391 30.9158 24.1328 30.7101 24.1328 30.4557V20.3117C24.1328 20.0573 24.3391 19.8517 24.5933 19.8517C24.8475 19.8517 25.0537 20.0573 25.0537 20.3117V30.4557C25.0537 30.7101 24.8475 30.9158 24.5933 30.9158Z" fill="white"/>
<path d="M5.90733 7.36102C3.97937 7.36102 2.68408 5.88191 2.68408 3.68051C2.68408 1.4791 3.97937 0 5.90733 0C7.8353 0 9.13058 1.4791 9.13058 3.68051C9.13058 5.88191 7.8353 7.36102 5.90733 7.36102ZM5.90733 0.920127C4.20822 0.920127 3.60501 2.40705 3.60501 3.68051C3.60501 4.95396 4.20822 6.44089 5.90733 6.44089C7.60645 6.44089 8.20965 4.95396 8.20965 3.68051C8.20965 2.40705 7.60645 0.920127 5.90733 0.920127Z" fill="white"/>
<path d="M20.1319 8.58251C18.204 8.58251 16.9087 7.10341 16.9087 4.902C16.9087 2.7006 18.204 1.2215 20.1319 1.2215C22.0599 1.2215 23.3552 2.7006 23.3552 4.902C23.3552 7.10341 22.0599 8.58251 20.1319 8.58251ZM20.1319 2.14162C18.4328 2.14162 17.8296 3.62855 17.8296 4.902C17.8296 6.17546 18.4328 7.66239 20.1319 7.66239C21.8311 7.66239 22.4343 6.17546 22.4343 4.902C22.4343 3.62855 21.8311 2.14162 20.1319 2.14162Z" fill="white"/>
<path d="M6.36769 30.9425C6.11351 30.9425 5.90723 30.7368 5.90723 30.4824V23.5815C5.90723 23.327 6.11351 23.1214 6.36769 23.1214C6.62187 23.1214 6.82816 23.327 6.82816 23.5815V30.4824C6.82816 30.7368 6.62187 30.9425 6.36769 30.9425Z" fill="white"/>
<path d="M20.1817 30.9425C19.9275 30.9425 19.7212 30.7368 19.7212 30.4824V23.5815C19.7212 23.327 19.9275 23.1214 20.1817 23.1214C20.4358 23.1214 20.6421 23.327 20.6421 23.5815V30.4824C20.6421 30.7368 20.4358 30.9425 20.1817 30.9425Z" fill="white"/>
</g>
<defs>
<clipPath id="clip0_79_322">
<rect width="27.8687" height="31" fill="white"/>
</clipPath>
</defs>
</svg>
