<svg width="31" height="31" viewBox="0 0 31 31" fill="none" xmlns="http://www.w3.org/2000/svg">
<g clip-path="url(#clip0_79_319)">
<path d="M15.4899 28.997C15.486 28.997 15.4815 28.9976 15.4776 28.9976C15.4737 28.9976 15.4692 28.997 15.4652 28.997C13.9449 28.9897 12.401 27.639 11.2273 25.2894C11.0559 24.9466 10.8958 24.5887 10.7452 24.2174C12.2543 23.8645 13.8415 23.6864 15.4776 23.6864C16.413 23.6864 17.3317 23.7443 18.2289 23.8611L17.5305 21.8435C16.8552 21.7851 16.1698 21.7553 15.4776 21.7553C13.6252 21.7553 11.8268 21.9666 10.1176 22.3829C9.603 20.5822 9.29792 18.5624 9.22713 16.4442H21.728C21.7162 16.7897 21.6983 17.133 21.6747 17.4729L23.5608 18.1258C23.6091 17.5752 23.6428 17.0145 23.6608 16.4442H28.9628C28.8825 17.5847 28.6594 18.7 28.3038 19.7675L30.1303 20.3996C30.6551 18.8326 30.9287 17.1751 30.9287 15.4784C30.9287 11.4426 29.3831 7.62484 26.5761 4.72851C25.1513 3.2576 23.4798 2.10131 21.6072 1.29112C19.6689 0.452284 17.607 0.0275269 15.4781 0.0275269C13.3493 0.0275269 11.2874 0.452284 9.34905 1.29112C8.76361 1.54396 8.1984 1.8305 7.65398 2.15075C6.4567 2.85419 5.36 3.71719 4.38015 4.72851C1.57321 7.62541 0.0275879 11.4432 0.0275879 15.4784C0.0275879 19.5136 1.57152 23.3263 4.37453 26.222C5.79992 27.6946 7.47195 28.8526 9.34512 29.6639C11.279 30.5011 13.3364 30.9264 15.4602 30.9292C15.4658 30.9292 15.4725 30.9298 15.4781 30.9298C15.4838 30.9298 15.4899 30.9292 15.4961 30.9292C17.1816 30.9281 18.8256 30.6595 20.3993 30.1297L19.1054 26.3912C18.0356 28.057 16.7552 28.9919 15.4905 28.9976L15.4899 28.997ZM9.22713 14.5125C9.29792 12.3904 9.60412 10.3672 10.1199 8.56482C11.8273 8.98002 13.6246 9.19184 15.4776 9.19184C17.3305 9.19184 19.1278 8.98002 20.8353 8.56482C21.351 10.3672 21.6572 12.391 21.728 14.5125H9.22713ZM28.9628 14.5125H23.6608C23.5866 12.1556 23.2456 9.95708 22.6905 8.01982C23.7776 7.64282 24.7884 7.18098 25.7103 6.64273C27.6251 8.85473 28.7572 11.5971 28.9628 14.5125ZM20.3785 2.86823C20.4043 2.87835 20.4302 2.88846 20.4566 2.89857C20.5555 2.9379 20.6555 2.97836 20.7538 3.02049C20.7583 3.02218 20.7628 3.02443 20.7679 3.02611C20.8606 3.06544 20.9527 3.1059 21.0448 3.14803C21.0746 3.16152 21.1038 3.175 21.1336 3.18905C21.2005 3.21939 21.2668 3.25085 21.3331 3.28232C21.3679 3.29917 21.4033 3.31659 21.4381 3.33401C21.4988 3.36378 21.5589 3.39412 21.619 3.42503C21.6556 3.44357 21.6926 3.46323 21.7292 3.48177C21.787 3.51211 21.8449 3.54301 21.9028 3.57448C21.9393 3.5947 21.9764 3.61437 22.0129 3.6346C22.0702 3.66662 22.1281 3.69977 22.1854 3.73236C22.2208 3.75258 22.2562 3.77281 22.2916 3.7936C22.3506 3.82843 22.4101 3.86439 22.4691 3.89979C22.5011 3.91889 22.5337 3.93856 22.5657 3.95822C22.6332 3.9998 22.7 4.0425 22.7674 4.08576C22.7899 4.10037 22.8129 4.11498 22.8354 4.12958C22.9253 4.18802 23.0152 4.24813 23.104 4.30938C23.1147 4.31668 23.1259 4.32398 23.1366 4.33185C23.213 4.38523 23.2899 4.4386 23.3658 4.49422C23.395 4.51501 23.4231 4.5358 23.4512 4.55659C23.5091 4.59929 23.5664 4.64199 23.6237 4.68525C23.6563 4.71054 23.6894 4.73526 23.722 4.7611C23.7743 4.80155 23.8265 4.84201 23.8782 4.88358C23.9125 4.91055 23.9462 4.93808 23.9799 4.96618C24.0299 5.00663 24.0805 5.04821 24.1299 5.08978C24.1642 5.11788 24.1973 5.14653 24.2316 5.17518C24.2507 5.19204 24.2704 5.2089 24.2895 5.22631C23.6023 5.59376 22.8607 5.9157 22.0719 6.19044C21.5589 4.88696 20.9375 3.74753 20.2313 2.81373C20.2802 2.83228 20.3285 2.85025 20.3774 2.86936L20.3785 2.86823ZM11.2278 5.6668C12.4049 3.30985 13.9533 1.9586 15.4781 1.9586C17.003 1.9586 18.552 3.30985 19.7285 5.6668C19.8981 6.00672 20.0571 6.36125 20.2071 6.72982C18.7003 7.0821 17.1137 7.2602 15.4781 7.2602C13.8426 7.2602 12.256 7.0821 10.7497 6.72926C10.8992 6.36181 11.0582 6.00672 11.2278 5.6668ZM6.72133 5.17631C6.75673 5.14597 6.79212 5.11619 6.82752 5.08641C6.87527 5.04652 6.92359 5.00719 6.97191 4.96786C7.00731 4.93865 7.04326 4.90999 7.07922 4.88078C7.12866 4.84145 7.17811 4.80268 7.22811 4.76447C7.2635 4.7375 7.2989 4.70997 7.3343 4.68244C7.38711 4.64199 7.44105 4.60266 7.49498 4.56277C7.52701 4.53917 7.55959 4.51501 7.59218 4.49141C7.6596 4.44253 7.72815 4.39478 7.79613 4.34758C7.81523 4.3341 7.83433 4.32005 7.854 4.30657C7.94108 4.24757 8.02873 4.18802 8.11638 4.13071C8.14615 4.1116 8.17649 4.0925 8.20571 4.07396C8.26582 4.03519 8.32538 3.99643 8.38606 3.95934C8.42258 3.93687 8.45966 3.91496 8.49618 3.89305C8.55012 3.86046 8.60518 3.82731 8.65967 3.79528C8.699 3.77225 8.73833 3.74977 8.77766 3.7273C8.83047 3.69696 8.88385 3.66662 8.93722 3.6374C8.97767 3.61493 9.01756 3.59302 9.05802 3.57111C9.11139 3.54189 9.16533 3.5138 9.21983 3.48571C9.26028 3.46436 9.30017 3.443 9.34062 3.42278C9.39624 3.39469 9.45187 3.36659 9.50749 3.33906C9.54738 3.31996 9.58671 3.3003 9.6266 3.28119C9.68671 3.25198 9.74627 3.22445 9.80695 3.19692C9.84234 3.18006 9.8783 3.1632 9.91426 3.14691C9.99235 3.11208 10.0704 3.07724 10.1497 3.04409C10.1676 3.03623 10.1862 3.0278 10.2042 3.02049C10.3008 2.97948 10.398 2.94015 10.4952 2.90138C10.5289 2.8879 10.5621 2.87554 10.5958 2.86262C10.6373 2.84632 10.68 2.83059 10.7227 2.8143C10.0165 3.74753 9.39512 4.88752 8.88216 6.19101C8.09222 5.91626 7.35059 5.59432 6.66346 5.22687C6.68256 5.21058 6.70167 5.19429 6.72021 5.17799L6.72133 5.17631ZM5.24538 6.64273C6.1668 7.18098 7.17642 7.6417 8.26526 8.01982C7.71017 9.95708 7.36913 12.1556 7.29497 14.5125H1.9929C2.19853 11.5977 3.3312 8.85586 5.24538 6.64273ZM1.9929 16.4436H7.29497C7.36857 18.7961 7.70904 20.9918 8.26245 22.9268C7.17361 23.3049 6.16286 23.7668 5.23976 24.3067C3.32895 22.0958 2.19797 19.3562 1.99234 16.4442L1.9929 16.4436ZM10.5744 28.0857C10.5486 28.0756 10.5222 28.0655 10.4963 28.0553C10.3963 28.016 10.2969 27.9756 10.198 27.9334H10.1974C10.1002 27.8919 10.003 27.8491 9.90639 27.8053C9.8783 27.7924 9.85021 27.7789 9.82212 27.766C9.75414 27.7345 9.68559 27.7031 9.61817 27.6699C9.5839 27.6536 9.55019 27.6362 9.51592 27.6199C9.45411 27.5896 9.39287 27.5592 9.33163 27.5278C9.29567 27.5098 9.26028 27.4913 9.22432 27.4721C9.16533 27.4407 9.10577 27.4098 9.04734 27.3778C9.01195 27.3587 8.97599 27.339 8.94059 27.3193C8.8816 27.2867 8.82261 27.2536 8.76474 27.2204C8.7299 27.2002 8.69507 27.1805 8.66136 27.1603C8.60012 27.1249 8.54056 27.0884 8.47988 27.0513C8.44898 27.0328 8.41808 27.0142 8.38662 26.9946C8.31864 26.9519 8.24953 26.9081 8.18099 26.8648C8.15964 26.8513 8.13773 26.8378 8.11638 26.8238C8.02536 26.7648 7.93546 26.7041 7.84613 26.6429C7.84164 26.6395 7.8377 26.6372 7.83377 26.6344C7.75006 26.5766 7.66634 26.517 7.58375 26.4574C7.55678 26.4383 7.53094 26.4187 7.50397 26.399C7.44385 26.3552 7.3843 26.3108 7.32475 26.2659C7.29328 26.2423 7.26238 26.2175 7.23092 26.1934C7.17698 26.1524 7.12361 26.1102 7.07023 26.067C7.03765 26.0406 7.0045 26.0142 6.97135 25.9872C6.92022 25.9462 6.86966 25.9035 6.81853 25.8608C6.78482 25.8332 6.75223 25.8051 6.71965 25.7771C6.69886 25.7596 6.67919 25.7417 6.65897 25.7242C7.34666 25.3551 8.08941 25.032 8.87935 24.7573C9.39287 26.0642 10.0154 27.207 10.7233 28.1424C10.6739 28.1239 10.6244 28.1054 10.5744 28.0857Z" stroke="white" stroke-width="0.97" stroke-miterlimit="10"/>
<path d="M26.7419 24.7601L30.9287 22.7195L18.3733 18.3736L22.7197 30.9287L24.7603 26.7423L28.9471 30.9287L30.9287 28.947L26.7419 24.7601Z" stroke="white" stroke-width="0.97" stroke-miterlimit="10"/>
</g>
<defs>
<clipPath id="clip0_79_319">
<rect width="31" height="31" fill="white"/>
</clipPath>
</defs>
</svg>
